# xmcd
#
# Track frame offsets: 
#        150
#        16860
#        39468
#        63391
#        82304
#        99382
#        117405
#        138115
#        157317
#
# Disc length: 2338 seconds
#
# Revision: 1
# Processed by: cddbd v1.5.2PL0 Copyright (c) Steve Scherf et al.
# Submitted via: ExactAudioCopy v0.95b3
#
DISCID=75092009
DTITLE=Nick Cave and The Bad Seeds - The Best Of [Arg] [Disc 2) (Live)
DYEAR=1998
DGENRE=Rock
TTITLE0=Lime Tree Arbour
TTITLE1=Stranger Than Kindness
TTITLE2=Red Right Hand
TTITLE3=I Let Love In
TTITLE4=Brompton Oratory
TTITLE5=Henry Lee
TTITLE6=The Weeping Song
TTITLE7=The Ship Song
TTITLE8=Where The Wild Roses Grow
EXTD=
EXTT0=
EXTT1=
EXTT2=
EXTT3=
EXTT4=
EXTT5=
EXTT6=
EXTT7=
EXTT8=
PLAYORDER=
